<?xml version="1.0" standalone="no"?>
<!DOCTYPE svg PUBLIC "-//W3C//DTD SVG 20010904//EN"
 "http://www.w3.org/TR/2001/REC-SVG-20010904/DTD/svg10.dtd">
<svg version="1.0" xmlns="http://www.w3.org/2000/svg"
 width="300.000000pt" height="300.000000pt" viewBox="0 0 300.000000 300.000000"
 preserveAspectRatio="xMidYMid meet">
<metadata>
Created by potrace 1.14, written by Peter Selinger 2001-2017
</metadata>
<g transform="translate(0.000000,300.000000) scale(0.100000,-0.100000)"
fill="#000000" stroke="none">
<path d="M381 2969 c11 -16 30 -34 41 -40 18 -10 26 -6 60 29 l40 40 -81 0
-81 0 21 -29z"/>
<path d="M716 2978 c-9 -12 -16 -40 -16 -61 0 -31 7 -46 35 -74 l35 -35 0
-124 c0 -118 -1 -124 -22 -135 -13 -6 -49 -31 -81 -56 -63 -49 -55 -49 -122 7
-17 14 -43 34 -58 45 -15 11 -27 29 -27 41 0 12 -7 27 -15 34 -12 10 -17 8
-26 -14 -13 -27 0 -56 25 -56 6 0 41 -29 76 -65 l65 -65 -31 -30 -30 -31 -138
134 -138 133 3 99 4 100 -25 0 -25 0 0 -105 -1 -105 144 -142 144 -142 -28
-35 -28 -35 -30 26 c-98 82 -243 232 -250 257 -15 62 -86 101 -131 72 -23 -15
-25 -23 -25 -91 l0 -75 31 -7 c21 -4 38 -18 54 -43 13 -20 76 -86 140 -147
l117 -110 -21 -41 c-11 -22 -25 -43 -29 -46 -5 -3 -28 9 -51 26 -56 40 -62 30
-10 -16 34 -31 40 -42 34 -63 -3 -14 -15 -27 -25 -30 -22 -6 -25 -14 -10 -29
6 -6 2 -25 -10 -52 l-19 -42 -101 0 c-93 0 -100 -1 -100 -20 0 -18 7 -20 83
-20 53 0 88 5 96 13 11 10 12 7 7 -17 -4 -15 -10 -41 -13 -57 l-5 -29 -84 0
c-83 0 -84 0 -84 -25 0 -24 2 -25 75 -25 l75 0 0 -40 0 -40 -75 0 c-68 0 -75
-2 -75 -20 0 -17 8 -19 68 -22 l67 -3 0 -40 0 -40 -67 -3 c-59 -3 -68 -5 -68
-22 0 -16 9 -19 62 -22 l63 -3 3 -37 3 -38 -65 0 c-59 0 -66 -2 -66 -20 0 -18
7 -20 64 -20 69 0 76 -5 76 -61 l0 -29 -70 0 c-63 0 -70 -2 -70 -20 0 -18 7
-20 75 -20 73 0 75 0 81 -27 3 -16 8 -36 11 -45 4 -16 -5 -18 -81 -18 -79 0
-86 -2 -86 -20 0 -19 7 -20 91 -20 l90 0 15 -35 c7 -19 14 -37 14 -40 0 -3
-47 -5 -105 -5 -98 0 -105 -1 -105 -20 0 -19 7 -20 115 -20 105 0 115 -2 115
-18 0 -11 -28 -41 -65 -71 -97 -79 -165 -162 -165 -201 l0 -32 39 49 c45 57
167 175 197 191 18 10 23 7 38 -24 l16 -35 -105 -112 -105 -112 0 -215 0 -216
63 -62 c40 -40 71 -62 86 -62 20 0 15 9 -43 74 l-66 73 0 190 0 190 30 37 c16
21 58 69 94 107 l66 69 25 -40 c14 -22 25 -42 25 -45 0 -2 -27 -36 -61 -75
-34 -39 -59 -73 -57 -75 2 -2 24 14 48 37 83 75 83 75 124 31 35 -37 45 -63
26 -63 -5 0 -10 -6 -10 -14 0 -7 -45 -57 -100 -110 l-101 -96 3 -73 c3 -66 5
-72 26 -75 21 -3 22 0 22 70 l0 73 88 88 c48 48 91 84 95 81 4 -4 7 -2 7 4 0
20 27 13 59 -14 48 -40 41 -62 -49 -161 l-80 -88 0 -97 c0 -76 3 -98 14 -98
16 0 26 50 26 128 0 51 3 56 62 123 34 38 67 69 74 69 6 0 18 10 27 23 l14 22
56 -38 c31 -21 60 -44 66 -50 6 -9 -18 -42 -79 -112 -72 -81 -89 -106 -90
-132 0 -26 4 -33 20 -33 15 0 20 7 20 28 0 20 18 45 69 97 105 108 111 111
156 89 19 -9 35 -18 35 -21 0 -3 -26 -36 -59 -73 -47 -55 -58 -73 -54 -94 7
-34 43 -37 43 -3 0 14 23 48 59 87 l60 65 55 -28 56 -27 0 -48 c0 -26 -5 -53
-12 -60 -9 -9 -4 -12 25 -12 l37 0 0 51 c0 49 1 50 28 47 25 -3 27 -7 30 -50
3 -43 5 -48 28 -48 21 0 24 5 24 36 0 33 2 35 28 32 22 -2 28 -8 30 -35 3 -27
7 -33 28 -33 19 0 24 5 24 25 0 14 4 25 9 25 23 0 41 -14 41 -31 0 -14 7 -19
30 -19 23 0 30 4 30 20 0 15 7 20 26 20 17 0 28 -6 31 -20 3 -13 14 -20 29
-20 17 0 24 6 24 20 0 13 7 20 20 20 13 0 20 -7 20 -20 0 -16 7 -20 30 -20 23
0 30 4 30 20 0 15 7 20 25 20 18 0 25 -5 25 -20 0 -30 47 -28 52 3 2 16 11 23
31 25 23 3 27 0 27 -22 0 -21 5 -26 25 -26 21 0 25 5 25 30 0 19 7 33 19 40
33 17 41 11 41 -30 0 -36 3 -40 25 -40 23 0 25 3 25 49 0 42 3 49 23 55 36 10
37 8 37 -49 0 -52 1 -55 25 -55 24 0 25 2 25 65 0 62 1 65 31 80 l30 16 85
-80 c61 -58 93 -81 111 -81 25 0 25 0 -13 43 -21 23 -59 64 -85 92 l-48 50 35
18 35 18 77 -70 c42 -38 95 -88 117 -110 29 -30 47 -41 69 -41 l31 0 -51 48
c-28 26 -84 82 -124 125 l-73 79 32 19 c17 10 35 19 39 19 4 0 75 -65 157
-145 113 -110 155 -145 171 -143 18 3 -4 30 -132 163 l-154 160 29 29 30 29
107 -99 c144 -133 221 -220 229 -255 9 -39 32 -37 38 4 4 30 -3 40 -112 152
-63 66 -139 145 -168 175 l-52 55 29 34 28 33 128 -118 c70 -66 143 -132 161
-148 33 -30 33 -30 33 -123 0 -86 1 -93 20 -93 19 0 20 7 20 103 l0 102 -58
46 c-31 25 -103 95 -159 156 l-103 111 41 51 c22 28 42 51 44 51 7 0 250 -244
278 -279 26 -32 27 -39 27 -137 0 -58 4 -106 10 -109 6 -4 10 41 10 126 l0
133 -97 95 c-54 53 -121 123 -149 156 l-52 61 25 47 24 48 50 -43 c28 -24 61
-49 75 -56 13 -7 46 -36 74 -64 l50 -51 0 48 c0 41 -2 46 -15 35 -13 -10 -22
-8 -56 16 -23 15 -44 36 -48 45 -3 9 -29 38 -58 63 l-52 47 27 59 27 60 85 -1
c80 -2 85 -1 88 19 3 21 -1 22 -68 22 -76 0 -91 10 -70 49 9 18 20 21 75 21
63 0 65 1 65 25 0 24 -3 25 -60 25 -64 0 -68 4 -54 57 6 20 13 23 60 23 51 0
54 1 54 25 0 23 -3 25 -51 25 l-51 0 6 31 c3 17 6 38 6 47 0 12 9 14 45 9 43
-6 45 -5 45 18 0 19 -5 25 -22 25 -50 0 -68 11 -68 40 0 29 18 40 68 40 17 0
22 6 22 25 0 23 -3 25 -50 25 l-50 0 0 40 0 40 50 0 c43 0 50 3 50 20 0 11 -7
20 -15 20 -9 0 -18 7 -21 15 -6 14 -8 14 -18 -1 -21 -28 -50 -13 -57 29 l-6
37 59 0 c55 0 58 1 58 25 0 24 -2 25 -64 25 l-64 0 -12 53 c-7 28 -21 73 -32
99 l-20 46 96 97 c80 80 96 102 96 127 l0 31 -42 -49 c-60 -69 -157 -164 -167
-164 -5 0 -14 14 -22 31 -12 31 -11 33 32 72 158 144 199 189 199 219 0 30 0
30 -17 10 -10 -10 -69 -68 -131 -127 l-114 -108 -21 33 -21 33 35 30 c19 17
87 81 152 144 106 103 117 117 117 149 0 25 -7 41 -26 58 -23 19 -25 25 -15
44 6 12 18 22 26 22 10 0 15 10 15 30 0 17 -5 30 -10 30 -10 0 -70 -28 -70
-33 -3 -38 -44 -90 -163 -204 -75 -73 -141 -133 -145 -133 -5 0 -21 14 -37 30
l-29 31 147 147 147 147 0 90 c1 87 2 91 34 129 33 38 34 38 57 22 32 -22 69
-21 69 2 0 9 -10 22 -22 27 -15 7 -23 19 -23 35 0 16 8 28 23 35 33 15 29 45
-7 45 -32 0 -71 -39 -71 -69 0 -9 -25 -41 -55 -71 l-55 -54 0 -91 0 -91 -129
-134 -128 -133 -32 22 c-17 12 -31 25 -31 28 0 2 38 44 85 93 47 49 85 95 85
102 0 8 14 22 31 32 29 17 49 51 49 81 0 8 -13 29 -28 47 -21 23 -38 31 -61
31 -35 0 -81 -36 -81 -65 0 -16 -169 -209 -191 -216 -5 -2 -20 5 -34 17 l-26
20 85 93 c47 51 144 152 215 223 113 112 128 131 109 134 -19 2 -65 -40 -236
-214 l-213 -216 -14 35 c-8 19 -15 52 -15 71 0 33 12 49 140 178 113 115 136
143 119 145 -24 4 -78 -43 -189 -165 -41 -46 -78 -83 -82 -83 -5 0 -8 44 -8
99 0 84 3 102 21 125 l20 26 -24 0 c-50 0 -56 -22 -59 -203 l-3 -167 -62 30
-61 30 2 155 2 155 -23 0 -23 0 0 -145 c0 -83 -4 -145 -9 -145 -5 0 -22 5 -37
10 l-27 11 5 134 5 135 -23 0 -24 0 0 -131 c0 -115 -2 -130 -16 -125 -9 3 -22
6 -30 6 -11 0 -14 24 -14 125 0 118 -1 125 -20 125 -19 0 -20 -7 -20 -116 l0
-115 -32 3 -33 3 -3 113 c-2 104 -4 112 -22 112 -19 0 -20 -7 -20 -110 l0
-110 -35 0 -35 0 0 110 c0 103 -1 110 -20 110 -19 0 -20 -7 -20 -104 0 -58 -4
-107 -8 -110 -5 -3 -18 -2 -30 1 -21 5 -22 11 -22 109 0 97 -1 104 -20 104
-19 0 -20 -7 -20 -110 l0 -110 -32 4 -33 3 -3 107 c-2 98 -4 106 -22 106 -19
0 -20 -7 -20 -109 0 -104 -1 -109 -22 -115 -48 -12 -48 -12 -48 109 0 108 -1
115 -20 115 -19 0 -20 -7 -20 -119 0 -126 -2 -131 -51 -131 -18 0 -19 8 -19
125 0 118 -1 125 -20 125 -19 0 -20 -7 -20 -134 0 -130 -1 -134 -22 -140 -13
-3 -26 -6 -30 -6 -5 0 -8 63 -8 140 l0 140 -25 0 -25 0 5 -151 c4 -147 4 -151
-17 -157 -11 -3 -60 -24 -109 -48 -72 -35 -88 -40 -93 -27 -3 8 -6 57 -6 108
0 84 2 94 20 100 55 17 77 100 39 149 -18 23 -28 26 -79 26 -49 0 -61 -4 -74
-22z m96 -35 c22 -20 23 -46 2 -64 -17 -14 -40 -5 -58 24 -8 12 -5 21 8 36 23
25 25 25 48 4z m1853 -224 c13 -40 -35 -66 -55 -30 -13 25 -13 27 5 45 19 18
42 11 50 -15z m-1085 -19 c26 -26 25 -44 -2 -70 -28 -26 -58 -25 -92 1 -27 21
-28 46 -4 77 16 19 75 15 98 -8z m67 4 c-3 -3 -12 -4 -19 -1 -8 3 -5 6 6 6 11
1 17 -2 13 -5z m138 -19 c61 -9 233 -64 290 -92 381 -191 641 -522 724 -919
11 -55 25 -135 30 -179 5 -44 13 -95 17 -113 4 -21 1 -40 -8 -55 -9 -12 -18
-61 -21 -113 -17 -233 -158 -512 -366 -721 -207 -208 -461 -332 -758 -368 -48
-6 -52 -5 -55 17 -5 36 21 54 97 68 252 44 456 146 638 319 190 181 300 377
356 635 19 86 21 111 20 211 0 22 0 69 0 105 1 137 -46 313 -126 474 -179 361
-484 586 -898 662 -104 19 -106 20 -98 40 9 23 55 44 88 39 17 -2 48 -7 70
-10z m-517 -17 c8 -8 42 -13 92 -13 58 0 80 -3 80 -12 0 -7 -8 -13 -17 -14
-10 0 -25 -2 -33 -4 -149 -30 -198 -41 -265 -62 -328 -103 -626 -381 -753
-704 -62 -156 -90 -350 -83 -574 5 -163 110 -431 233 -595 68 -90 198 -210
305 -282 168 -113 318 -173 509 -203 90 -14 117 -15 156 -6 58 15 84 4 93 -41
6 -26 3 -35 -15 -50 -27 -22 -42 -22 -78 -4 -15 7 -69 16 -120 20 -240 17
-549 157 -744 335 -73 68 -180 192 -222 259 -97 154 -170 350 -187 497 -6 55
-15 110 -21 122 -6 12 -8 36 -4 55 4 18 9 58 12 88 36 369 143 609 377 842
149 149 299 245 497 316 125 45 167 51 188 30z m1320 -25 c15 -9 29 -18 31
-20 5 -4 -171 -183 -179 -183 -3 1 -16 9 -28 20 l-24 20 83 90 c45 49 84 90
86 90 2 0 16 -8 31 -17z m-2494 -92 c19 -21 13 -47 -16 -62 -37 -20 -76 39
-46 69 17 17 42 15 62 -7z m1408 -51 c3 -30 6 -101 7 -157 1 -96 2 -103 21
-103 19 0 20 7 20 161 l0 162 84 -7 c104 -7 287 -54 380 -95 168 -76 353 -231
461 -386 129 -186 205 -407 205 -595 l0 -77 -151 -6 c-83 -4 -157 -11 -166
-15 -19 -11 88 -22 220 -22 l97 0 0 -49 c0 -72 -27 -201 -61 -294 -157 -427
-535 -715 -986 -752 l-83 -7 -2 58 c-1 33 -3 82 -3 109 -2 88 -4 95 -25 95
-19 0 -20 -7 -20 -125 0 -107 -2 -127 -16 -132 -27 -10 -242 25 -329 53 -180
58 -318 146 -471 299 -127 127 -193 226 -254 381 -46 119 -70 221 -70 304 l0
58 104 7 c57 4 109 4 115 1 6 -4 11 -28 11 -54 0 -163 123 -385 278 -503 139
-105 260 -146 452 -151 l105 -3 3 127 3 127 -88 -6 c-159 -10 -267 29 -373
136 -41 42 -80 93 -104 140 -36 69 -39 81 -44 180 -7 164 32 274 137 384 98
103 220 150 381 146 l85 -2 3 115 3 115 -63 7 c-63 6 -186 -5 -265 -24 -168
-40 -356 -192 -437 -352 -44 -88 -76 -210 -76 -289 0 -71 -3 -73 -140 -62
l-95 8 3 75 c9 232 114 484 283 679 111 128 209 203 368 281 110 54 203 84
311 99 41 6 86 13 100 15 67 10 75 5 82 -54z m1443 -37 l29 -26 -144 -138
c-80 -76 -149 -137 -153 -136 -5 1 -16 15 -25 30 l-17 27 135 135 c74 74 137
135 140 135 3 0 18 -12 35 -27z m-2545 -238 c0 -6 -9 -20 -20 -30 -20 -18 -22
-17 -108 65 -104 99 -162 162 -162 174 0 5 7 18 16 27 16 18 23 12 145 -103
71 -66 129 -126 129 -133z"/>
<path d="M1542 1378 l3 -723 110 0 110 0 5 300 5 300 273 3 272 2 0 39 c0 21
-3 79 -6 129 l-7 92 -266 2 -266 3 0 164 0 164 290 1 290 1 3 100 c2 55 0 110
-3 123 l-5 22 -405 0 -405 0 2 -722z"/>
<path d="M1159 1549 c-61 -44 -108 -89 -125 -121 -12 -22 -22 -28 -49 -28 -24
0 -35 -5 -35 -15 0 -10 11 -15 35 -15 29 0 38 -6 64 -43 30 -44 90 -103 135
-132 24 -16 27 -16 69 13 44 31 167 156 167 171 0 22 -53 81 -123 138 -43 35
-81 63 -86 63 -4 0 -28 -14 -52 -31z m92 -53 c49 -33 93 -99 86 -128 -4 -13
-28 -45 -55 -72 -44 -42 -53 -47 -80 -41 -46 10 -122 94 -122 135 0 30 100
130 130 130 3 0 21 -11 41 -24z"/>
<path d="M1965 1042 c-63 -21 -103 -81 -89 -136 3 -15 25 -42 47 -61 32 -28
49 -35 82 -35 47 0 75 22 75 58 0 27 -9 27 -49 5 -29 -17 -31 -17 -58 3 -30
22 -41 67 -24 94 6 9 33 17 68 20 49 4 58 8 61 26 2 15 -4 23 -20 28 -28 7
-66 6 -93 -2z"/>
<path d="M2130 946 c0 -108 5 -126 31 -126 15 0 19 7 19 38 l0 39 58 9 c40 6
57 13 57 24 0 11 -14 16 -57 18 -54 3 -58 5 -58 27 0 24 3 25 65 25 58 0 65 2
65 20 0 19 -7 20 -90 20 l-90 0 0 -94z"/>
<path d="M7 2983 c-4 -3 -7 -41 -7 -84 0 -76 1 -79 26 -85 44 -11 87 8 107 47
20 41 13 73 -23 109 -20 20 -88 29 -103 13z m78 -77 c0 -36 -26 -56 -49 -37
-16 14 -22 52 -9 65 4 4 19 6 33 4 20 -2 25 -8 25 -32z"/>
<path d="M385 2768 c-32 -25 -32 -62 0 -93 39 -40 88 -28 100 25 14 64 -51
107 -100 68z m60 -48 c0 -8 -8 -16 -17 -18 -13 -2 -18 3 -18 18 0 15 5 20 18
18 9 -2 17 -10 17 -18z"/>
<path d="M576 2678 c-20 -28 -20 -52 -1 -68 20 -16 50 -4 64 26 23 52 -31 88
-63 42z"/>
<path d="M12 2291 c-9 -5 -12 -31 -10 -92 l3 -84 42 -3 c57 -4 93 29 93 85 -1
69 -78 126 -128 94z m59 -61 c24 -14 25 -56 1 -69 -39 -21 -81 36 -50 67 15
15 24 15 49 2z"/>
<path d="M27 1984 c-11 -11 -8 -52 3 -59 6 -3 19 -3 31 0 28 9 23 59 -6 63
-12 2 -24 0 -28 -4z"/>
</g>
</svg>
